<?xml version="1.0" encoding="utf-8"?>
<!-- Generator: Adobe Illustrator 19.0.0, SVG Export Plug-In . SVG Version: 6.00 Build 0)  -->
<svg version="1.1" id="Layer_1" xmlns="http://www.w3.org/2000/svg" xmlns:xlink="http://www.w3.org/1999/xlink" x="0px" y="0px"
	 viewBox="0 0 258.1 322.2" style="enable-background:new 0 0 258.1 322.2;" xml:space="preserve">
<style type="text/css">
	.st0{fill:#F6EC13;stroke:#000000;stroke-width:2;stroke-linecap:round;stroke-linejoin:round;stroke-miterlimit:10;}
	.st1{fill:#F6EC13;stroke:#000000;stroke-width:3;stroke-miterlimit:10;}
	.st2{fill:#FFFFFF;}
	.st3{fill:none;stroke:#000000;stroke-width:2;stroke-linecap:round;stroke-miterlimit:10;}
	.st4{fill:none;stroke:#000000;stroke-width:2;stroke-miterlimit:10;}
	.st5{fill:none;stroke:#000000;stroke-miterlimit:10;}
	.st6{fill:none;stroke:#000000;stroke-linecap:round;stroke-miterlimit:10;}
</style>
<g id="XMLID_40_">
	<g id="XMLID_4_">
		<polygon id="XMLID_2_" class="st0" points="129.9,8.6 158.1,95.2 249.1,95.2 175.5,148.8 203.6,235.4 129.9,181.8 56.3,235.4 
			84.4,148.8 10.7,95.2 101.8,95.2 		"/>
		<polygon id="XMLID_3_" points="129.9,144.8 113.3,156.8 119.7,137.3 103.1,125.2 123.6,125.2 129.9,105.7 136.3,125.2 
			156.8,125.2 140.2,137.3 146.5,156.8 		"/>
	</g>
	<g id="XMLID_1_">
		<circle id="XMLID_5_" class="st1" cx="36.8" cy="254.7" r="27"/>
		<circle id="XMLID_6_" cx="36.8" cy="254.7" r="4"/>
		<circle id="XMLID_7_" cx="36.8" cy="254.7" r="4"/>
		<circle id="XMLID_8_" cx="36.8" cy="238.4" r="4"/>
		<circle id="XMLID_9_" cx="36.8" cy="238.4" r="4"/>
		<circle id="XMLID_10_" cx="27.2" cy="241.5" r="4"/>
		<circle id="XMLID_11_" cx="21.3" cy="249.7" r="4"/>
		<circle id="XMLID_12_" cx="21.3" cy="259.7" r="4"/>
		<circle id="XMLID_13_" cx="27.2" cy="267.9" r="4"/>
		<circle id="XMLID_14_" cx="36.8" cy="271" r="4"/>
		<circle id="XMLID_15_" cx="46.4" cy="267.9" r="4"/>
		<circle id="XMLID_16_" cx="52.3" cy="259.7" r="4"/>
		<circle id="XMLID_17_" cx="52.3" cy="249.7" r="4"/>
		<circle id="XMLID_18_" cx="46.4" cy="241.5" r="4"/>
		<circle id="XMLID_19_" class="st2" cx="36.8" cy="238.4" r="1.3"/>
		<circle id="XMLID_20_" class="st2" cx="27.2" cy="241.5" r="1.3"/>
		<circle id="XMLID_21_" class="st2" cx="21.3" cy="249.7" r="1.3"/>
		<circle id="XMLID_22_" class="st2" cx="21.3" cy="259.7" r="1.3"/>
		<circle id="XMLID_23_" class="st2" cx="27.2" cy="267.9" r="1.3"/>
		<circle id="XMLID_24_" class="st2" cx="36.8" cy="271" r="1.3"/>
		<circle id="XMLID_25_" class="st2" cx="46.4" cy="267.9" r="1.3"/>
		<circle id="XMLID_26_" class="st2" cx="52.3" cy="259.7" r="1.3"/>
		<circle id="XMLID_27_" class="st2" cx="52.3" cy="249.7" r="1.3"/>
		<circle id="XMLID_28_" class="st2" cx="46.4" cy="241.5" r="1.3"/>
		<circle id="XMLID_29_" cx="36.8" cy="261.1" r="1.3"/>
		<circle id="XMLID_30_" cx="40.5" cy="259.8" r="1.3"/>
		<circle id="XMLID_31_" cx="42.9" cy="256.7" r="1.3"/>
		<circle id="XMLID_32_" cx="42.9" cy="252.7" r="1.3"/>
		<circle id="XMLID_33_" cx="40.5" cy="249.5" r="1.3"/>
		<circle id="XMLID_34_" cx="36.8" cy="248.3" r="1.3"/>
		<circle id="XMLID_35_" cx="33" cy="249.5" r="1.3"/>
		<circle id="XMLID_36_" cx="30.7" cy="252.7" r="1.3"/>
		<circle id="XMLID_37_" cx="30.7" cy="256.7" r="1.3"/>
		<circle id="XMLID_38_" cx="33" cy="259.8" r="1.3"/>
	</g>
	<path id="XMLID_95_" class="st3" d="M130,230.9c-0.2,0.1-0.4,0.2-0.6,0.3h0c-7.2,4.2-18.1,15-27.9,42.1C93,297,79.7,306.4,70,310.1
		c-5.8,2.3-11,2.8-14.6,2.8c-2.8,0-4.5-0.3-4.5-0.3l0.1-0.5c0.1,0,8.5,1.6,18.9-2.4c9.5-3.7,22.7-13,31.2-36.5
		c8.6-23.6,17.9-34.6,24.3-39.7c1.3-1,2.4-1.8,3.5-2.5c0,0,0,0,0,0c0.2-0.1,0.4-0.2,0.6-0.3"/>
	<path id="XMLID_81_" class="st4" d="M41.4,282.4c-2.8,0-4.5-0.3-4.5-0.3l0.1-0.5c0.1,0,8.5,1.6,18.9-2.4c9.5-3.7,22.7-13,31.2-36.5
		c8.6-23.6,17.9-34.7,24.3-39.7c6.9-5.5,11.8-5.4,12-5.4l0,0.5c0,0,0,0,0,0c-0.7,0-19.7,0.5-35.7,44.8
		c-8.6,23.7-21.9,33.1-31.5,36.8C50.1,281.9,44.9,282.4,41.4,282.4z"/>
	<path id="XMLID_75_" class="st5" d="M36.8,281.7c0,0,33.8,6.6,50.3-39.1s36-45,36-45"/>
	<path id="XMLID_39_" class="st5" d="M36.8,281.7c0,0,33.8,6.6,50.3-39.1s36-45,36-45"/>
	<path id="XMLID_77_" class="st5" d="M36.8,281.7c0,0,33.8,6.6,50.3-39.1s36-45,36-45"/>
	<path id="XMLID_80_" class="st5" d="M36.8,281.7c0,0,33.8,6.6,50.3-39.1s36-45,36-45"/>
	<path id="XMLID_78_" class="st5" d="M46.4,285.6c0,0,29.2,2.3,44.9-40.8s34-42.5,34-42.5"/>
	<path id="XMLID_92_" class="st6" d="M53.5,308.2c0,0,28.9,3,44.5-40.1c12.1-33.4,25.8-40.6,31.4-42.1"/>
	<g id="XMLID_49_">
		<circle id="XMLID_90_" class="st1" cx="222.1" cy="254.7" r="27"/>
		<circle id="XMLID_89_" cx="222.1" cy="254.7" r="4"/>
		<circle id="XMLID_88_" cx="222.1" cy="254.7" r="4"/>
		<circle id="XMLID_87_" cx="222.1" cy="238.4" r="4"/>
		<circle id="XMLID_86_" cx="222.1" cy="238.4" r="4"/>
		<circle id="XMLID_85_" cx="231.7" cy="241.5" r="4"/>
		<circle id="XMLID_84_" cx="237.6" cy="249.7" r="4"/>
		<circle id="XMLID_83_" cx="237.6" cy="259.7" r="4"/>
		<circle id="XMLID_82_" cx="231.7" cy="267.9" r="4"/>
		<circle id="XMLID_74_" cx="222.1" cy="271" r="4"/>
		<circle id="XMLID_73_" cx="212.6" cy="267.9" r="4"/>
		<circle id="XMLID_72_" cx="206.7" cy="259.7" r="4"/>
		<circle id="XMLID_71_" cx="206.7" cy="249.7" r="4"/>
		<circle id="XMLID_70_" cx="212.6" cy="241.5" r="4"/>
		<circle id="XMLID_69_" class="st2" cx="222.1" cy="238.4" r="1.3"/>
		<circle id="XMLID_68_" class="st2" cx="231.7" cy="241.5" r="1.3"/>
		<circle id="XMLID_67_" class="st2" cx="237.6" cy="249.7" r="1.3"/>
		<circle id="XMLID_66_" class="st2" cx="237.6" cy="259.7" r="1.3"/>
		<circle id="XMLID_65_" class="st2" cx="231.7" cy="267.9" r="1.3"/>
		<circle id="XMLID_64_" class="st2" cx="222.1" cy="271" r="1.3"/>
		<circle id="XMLID_63_" class="st2" cx="212.6" cy="267.9" r="1.3"/>
		<circle id="XMLID_62_" class="st2" cx="206.7" cy="259.7" r="1.3"/>
		<circle id="XMLID_61_" class="st2" cx="206.7" cy="249.7" r="1.3"/>
		<circle id="XMLID_60_" class="st2" cx="212.6" cy="241.5" r="1.3"/>
		<circle id="XMLID_59_" cx="222.1" cy="261.1" r="1.3"/>
		<circle id="XMLID_58_" cx="218.4" cy="259.8" r="1.3"/>
		<circle id="XMLID_57_" cx="216.1" cy="256.7" r="1.3"/>
		<circle id="XMLID_56_" cx="216.1" cy="252.7" r="1.3"/>
		<circle id="XMLID_55_" cx="218.4" cy="249.5" r="1.3"/>
		<circle id="XMLID_54_" cx="222.1" cy="248.3" r="1.3"/>
		<circle id="XMLID_53_" cx="225.9" cy="249.5" r="1.3"/>
		<circle id="XMLID_52_" cx="228.2" cy="252.7" r="1.3"/>
		<circle id="XMLID_51_" cx="228.2" cy="256.7" r="1.3"/>
		<circle id="XMLID_50_" cx="225.9" cy="259.8" r="1.3"/>
	</g>
	<path id="XMLID_94_" class="st3" d="M128.9,230.9C128.9,230.9,128.9,230.9,128.9,230.9c0.2,0.1,0.4,0.2,0.6,0.3h0
		c7.2,4.2,18.1,15,27.9,42.1c8.6,23.7,21.9,33.1,31.5,36.8c5.8,2.3,11,2.8,14.6,2.8c2.8,0,4.5-0.3,4.5-0.3l-0.1-0.5
		c-0.1,0-8.5,1.6-18.9-2.4c-9.5-3.7-22.7-13-31.2-36.5c-8.6-23.6-17.9-34.6-24.3-39.7c-1.3-1-2.4-1.8-3.5-2.5
		c-0.2-0.1-0.4-0.2-0.6-0.3"/>
	<path id="XMLID_47_" class="st4" d="M217.5,282.4c2.8,0,4.5-0.3,4.5-0.3l-0.1-0.5c-0.1,0-8.5,1.6-18.9-2.4
		c-9.5-3.7-22.7-13-31.2-36.5c-8.6-23.6-17.9-34.7-24.3-39.7c-6.9-5.5-11.8-5.4-12-5.4l0,0.5c0,0,0,0,0,0c0.7,0,19.7,0.5,35.7,44.8
		c8.6,23.7,21.9,33.1,31.5,36.8C208.8,281.9,214,282.4,217.5,282.4z"/>
	<path id="XMLID_46_" class="st5" d="M222.1,281.7c0,0-33.8,6.6-50.3-39.1s-36-45-36-45"/>
	<path id="XMLID_45_" class="st5" d="M222.1,281.7c0,0-33.8,6.6-50.3-39.1s-36-45-36-45"/>
	<path id="XMLID_44_" class="st5" d="M222.1,281.7c0,0-33.8,6.6-50.3-39.1s-36-45-36-45"/>
	<path id="XMLID_43_" class="st5" d="M222.1,281.7c0,0-33.8,6.6-50.3-39.1s-36-45-36-45"/>
	<path id="XMLID_42_" class="st5" d="M212.6,285.6c0,0-29.2,2.3-44.9-40.8s-34-42.5-34-42.5"/>
	<path id="XMLID_91_" class="st6" d="M129.5,225.9c5.6,1.5,19.3,8.7,31.4,42.1c15.7,43.1,44.5,40.1,44.5,40.1"/>
</g>
</svg>
